# xmcd
#
# Track frame offsets: 
#        150
#        21759
#        38884
#        59250
#        80599
#        101909
#        121472
#        136766
#        154638
#        171327
#        189527
#        211226
#        230221
#        246091
#        269875
#        289156
#
# Disc length: 4099 seconds
#
# Revision: 0
# Processed by: cddbd v1.5.2PL0 Copyright (c) Steve Scherf et al.
# Submitted via: ExactAudioCopy v1.3
#
DISCID=ef100110
DTITLE=Magic Sam - Live At The Avant Garde
DYEAR=2013
DGENRE=Chicago Blues
TTITLE0=San-Ho-Zay
TTITLE1=Don't Want No Woman
TTITLE2=I Need You So Bad
TTITLE3=Feelin' Good
TTITLE4=It's All Your Fault Baby
TTITLE5=You Belong To Me
TTITLE6=Bad Luck Blues
TTITLE7=Come On In This House
TTITLE8=Hoochie Coochie Man
TTITLE9=Still A Fool
TTITLE10=That's All I Need
TTITLE11=All Your Love (I Miss Loving)
TTITLE12=That's All Right
TTITLE13=Lookin' Good
TTITLE14=Everynight Everyday
TTITLE15=Hully Gully Twist
EXTD=
EXTT0=
EXTT1=
EXTT2=
EXTT3=
EXTT4=
EXTT5=
EXTT6=
EXTT7=
EXTT8=
EXTT9=
EXTT10=
EXTT11=
EXTT12=
EXTT13=
EXTT14=
EXTT15=
PLAYORDER=
